<svg xmlns="http://www.w3.org/2000/svg" viewBox="0 0 500 500"><g id="freepik--background-complete--inject-78"><rect x="416.78" y="398.49" width="33.12" height="0.25" style="fill:#ebebeb"></rect><rect x="322.53" y="401.21" width="8.69" height="0.25" style="fill:#ebebeb"></rect><rect x="396.59" y="389.21" width="19.19" height="0.25" style="fill:#ebebeb"></rect><rect x="52.46" y="390.89" width="43.19" height="0.25" style="fill:#ebebeb"></rect><rect x="104.56" y="390.89" width="6.33" height="0.25" style="fill:#ebebeb"></rect><rect x="131.47" y="395.11" width="93.68" height="0.25" style="fill:#ebebeb"></rect><path d="M237,337.8H43.92a5.71,5.71,0,0,1-5.71-5.71V60.66A5.71,5.71,0,0,1,43.92,55H237a5.71,5.71,0,0,1,5.71,5.71V332.09A5.71,5.71,0,0,1,237,337.8ZM43.92,55.2a5.47,5.47,0,0,0-5.46,5.46V332.09a5.47,5.47,0,0,0,5.46,5.46H237a5.47,5.47,0,0,0,5.46-5.46V60.66A5.47,5.47,0,0,0,237,55.2Z" style="fill:#ebebeb"></path><path d="M453.31,337.8H260.21a5.72,5.72,0,0,1-5.71-5.71V60.66A5.72,5.72,0,0,1,260.21,55h193.1A5.71,5.71,0,0,1,459,60.66V332.09A5.71,5.71,0,0,1,453.31,337.8ZM260.21,55.2a5.47,5.47,0,0,0-5.46,5.46V332.09a5.47,5.47,0,0,0,5.46,5.46h193.1a5.47,5.47,0,0,0,5.46-5.46V60.66a5.47,5.47,0,0,0-5.46-5.46Z" style="fill:#ebebeb"></path><rect y="382.4" width="500" height="0.25" style="fill:#ebebeb"></rect><rect x="64.86" y="250.18" width="95.18" height="126.65" style="fill:#f5f5f5"></rect><rect x="160.04" y="250.18" width="18.16" height="126.65" style="fill:#e6e6e6"></rect><rect x="71.53" y="259.57" width="82.33" height="30.76" style="fill:#fafafa"></rect><path d="M102,259.57l.36,4.1a2.62,2.62,0,0,0,2.61,2.39h15.53a2.62,2.62,0,0,0,2.61-2.39l.36-4.1Z" style="fill:#ebebeb"></path><rect x="71.53" y="293.69" width="82.33" height="30.76" style="fill:#fafafa"></rect><path d="M102,293.69l.36,4.1a2.62,2.62,0,0,0,2.61,2.39h15.53a2.62,2.62,0,0,0,2.61-2.39l.36-4.1Z" style="fill:#ebebeb"></path><rect x="71.53" y="327.8" width="82.33" height="30.76" style="fill:#fafafa"></rect><path d="M102,327.8l.36,4.1a2.62,2.62,0,0,0,2.61,2.39h15.53a2.62,2.62,0,0,0,2.61-2.39l.36-4.1Z" style="fill:#ebebeb"></path><polygon points="153.86 383.14 72.53 383.14 71.53 376.81 153.86 376.81 153.86 383.14" style="fill:#e6e6e6"></polygon><polygon points="170.86 383.14 153.86 383.14 153.86 376.81 171.86 376.81 170.86 383.14" style="fill:#e0e0e0"></polygon><path d="M132.23,249.92h11.52a9.31,9.31,0,0,0,3.31-7.13c0-3.26-1.84-22.67-1.84-22.67H130.76s-1.84,19.41-1.84,22.67A9.31,9.31,0,0,0,132.23,249.92Z" style="fill:#ebebeb"></path><path d="M138.25,233.94a2.85,2.85,0,0,0-2.85-2.8h-17a2.86,2.86,0,0,0-2.85,2.8v.21a6.23,6.23,0,0,0-1.89-.31c-2.79,0-4.66,2.18-4.66,5.41s3.26,5.41,6.17,5.41a5.14,5.14,0,0,0,.88-.08,11.75,11.75,0,0,0,3.58,5.34h14.52a11.74,11.74,0,0,0,4.17-9C138.34,239.81,138.3,237.18,138.25,233.94Zm-23.06,8.91c-2,0-4.36-1.6-4.36-3.6,0-.84.21-3.6,2.85-3.6a4.66,4.66,0,0,1,1.86.43c0,2.23-.06,4-.06,4.86a11.73,11.73,0,0,0,.17,1.88A3.44,3.44,0,0,1,115.19,242.85Z" style="fill:#e0e0e0"></path><path d="M76.75,236.47a13.92,13.92,0,0,1,27.83,0v14.39H76.75Z" style="fill:#f0f0f0"></path><circle cx="90.67" cy="236.47" r="10.87" transform="translate(-160.31 270.38) rotate(-76.72)" style="fill:#fafafa"></circle><path d="M90.67,227.31a10.86,10.86,0,0,1,10.82,10c0-.29.05-.57.05-.86a10.87,10.87,0,0,0-21.74,0c0,.29,0,.57,0,.86A10.86,10.86,0,0,1,90.67,227.31Z" style="fill:#e0e0e0"></path><path d="M97.53,236.46H91.82v-5.71a1.15,1.15,0,1,0-2.3,0v6.86a1.14,1.14,0,0,0,1.15,1.15h6.86a1.15,1.15,0,0,0,0-2.3Z" style="fill:#e0e0e0"></path><path d="M97.53,237.62a1.15,1.15,0,0,0,0-2.3H90.67a1.15,1.15,0,0,0,0,2.3Z" style="fill:#f5f5f5"></path><path d="M91.82,229.6a1.15,1.15,0,1,0-2.3,0v6.87a1.15,1.15,0,1,0,2.3,0Z" style="fill:#ebebeb"></path><path d="M359,323.92l-3.76-.66s-6.16,20.09-7.42,27-2.66,26.62-3,31.38a1.17,1.17,0,0,0,1,1.23l1.69.29a1.17,1.17,0,0,0,1.33-.82c1.32-4.58,6.73-23.47,7.92-30.5S359,323.92,359,323.92Z" style="fill:#e6e6e6"></path><path d="M408.89,323.92l3.76-.66s6.15,20.09,7.41,27,2.67,26.62,3,31.38a1.17,1.17,0,0,1-1,1.23l-1.7.29a1.16,1.16,0,0,1-1.32-.82c-1.32-4.58-6.73-23.47-7.92-30.5S408.89,323.92,408.89,323.92Z" style="fill:#e6e6e6"></path><rect x="386.86" y="312.59" width="2.13" height="57.49" transform="translate(-120.77 432.01) rotate(-51.45)" style="fill:#e6e6e6"></rect><rect x="350.31" y="340.27" width="57.49" height="2.13" transform="translate(-130.11 310.61) rotate(-38.55)" style="fill:#e6e6e6"></rect><path d="M364.33,323.92l-3.76-.66s-6.16,20.09-7.42,27-2.66,26.62-3,31.38a1.18,1.18,0,0,0,1,1.23l1.69.29a1.17,1.17,0,0,0,1.33-.82c1.32-4.58,6.73-23.47,7.92-30.5S364.33,323.92,364.33,323.92Z" style="fill:#f0f0f0"></path><path d="M402.66,323.92l3.76-.66s6.16,20.09,7.42,27,2.66,26.62,3,31.38a1.17,1.17,0,0,1-1,1.23l-1.69.29a1.17,1.17,0,0,1-1.33-.82c-1.32-4.58-6.73-23.47-7.92-30.5S402.66,323.92,402.66,323.92Z" style="fill:#f0f0f0"></path><path d="M420,317.12H347a1.89,1.89,0,0,1-1.83-2.3L358,258.57a23,23,0,0,1,22.42-17.87h6.15A23,23,0,0,1,409,258.57l12.86,56.25A1.88,1.88,0,0,1,420,317.12Z" style="fill:#f5f5f5"></path><path d="M425.17,315.61c0,5.78-18.66,10.47-41.68,10.47s-41.68-4.69-41.68-10.47S360.47,313,383.49,313,425.17,309.83,425.17,315.61Z" style="fill:#ebebeb"></path></g><g id="freepik--Shadow--inject-78"><ellipse id="freepik--path--inject-78" cx="245.18" cy="412.39" rx="193.89" ry="11.32" style="fill:#f5f5f5"></ellipse></g><g id="freepik--speech-bubbles--inject-78"><path d="M391.9,171.53l-1.69,19.25a6.51,6.51,0,0,1-6.37,5.86H369.57L361,205.87l1-9.82a5.29,5.29,0,0,1-2.84-5.27l1.69-19.25a6.52,6.52,0,0,1,6.37-5.86h19.25A5.29,5.29,0,0,1,391.9,171.53Z" style="fill:#FFD523"></path><path d="M391.9,171.53l-1.69,19.25a6.51,6.51,0,0,1-6.37,5.86H369.57L361,205.87l1-9.82a5.29,5.29,0,0,1-2.84-5.27l1.69-19.25a6.52,6.52,0,0,1,6.37-5.86h19.25A5.29,5.29,0,0,1,391.9,171.53Z" style="fill:#fff;opacity:0.2"></path><path d="M371.26,185.14a3.29,3.29,0,1,0,3.11-.11l6.29-13.63a.38.38,0,0,0-.49-.51l-1.89.77a2.66,2.66,0,0,0-1.43,1.37Zm-.21,2a2.06,2.06,0,1,1,1,2.74A2.06,2.06,0,0,1,371.05,187.11Z" style="fill:#fff"></path><path d="M386.13,175.61,379,178.25l-1.65,3.57,6.88-2.53a2.68,2.68,0,0,0,1.47-1.32l.92-1.83A.38.38,0,0,0,386.13,175.61Z" style="fill:#fff"></path><path d="M369.4,184.74l.67-.24,1.65-3.57-2,.72a3.29,3.29,0,1,0-.36,3.09Zm-4.63-1.17a2.07,2.07,0,1,1,2.65,1.23A2.07,2.07,0,0,1,364.77,183.57Z" style="fill:#fff"></path><path d="M405.46,88.33l-2.16,24.74a8.39,8.39,0,0,1-8.19,7.53H376.62L367.46,133l1-12.68a6.78,6.78,0,0,1-4.95-7.27l2.17-24.74a8.38,8.38,0,0,1,8.19-7.53h24.74A6.78,6.78,0,0,1,405.46,88.33Z" style="fill:#FFD523"></path><g style="opacity:0.2"><path d="M405.46,88.33l-2.16,24.74a8.39,8.39,0,0,1-8.19,7.53H376.62L367.46,133l1-12.68a6.78,6.78,0,0,1-4.95-7.27l2.17-24.74a8.38,8.38,0,0,1,8.19-7.53h24.74A6.78,6.78,0,0,1,405.46,88.33Z" style="fill:#fff"></path></g><path d="M390.15,108.88a10.55,10.55,0,0,1-5.76,2.28l-.49,3.53h-3.15l.48-3.43a16.15,16.15,0,0,1-4.32-.82,9.35,9.35,0,0,1-3.16-1.7L376,104.9a9.49,9.49,0,0,0,2.59,1.48,11.41,11.41,0,0,0,3.2.75l.73-5.25a21.41,21.41,0,0,1-3.61-1.2,5.51,5.51,0,0,1-2.31-1.93,4.75,4.75,0,0,1-.56-3.39,7.1,7.1,0,0,1,2.53-4.48,10.39,10.39,0,0,1,5.81-2.28l.49-3.5H388l-.48,3.43a12.31,12.31,0,0,1,6.12,1.92l-2.12,3.87A11,11,0,0,0,387,92.69L386.23,98a19.76,19.76,0,0,1,3.57,1.15,5.37,5.37,0,0,1,2.29,1.92,4.66,4.66,0,0,1,.57,3.35A6.94,6.94,0,0,1,390.15,108.88ZM381.58,96.4a4.09,4.09,0,0,0,1.61.85l.63-4.47a4,4,0,0,0-1.89.9,2.39,2.39,0,0,0-.77,1.43A1.42,1.42,0,0,0,381.58,96.4Zm5.21,9.79a2.15,2.15,0,0,0,.75-1.35,1.41,1.41,0,0,0-.4-1.29,4.33,4.33,0,0,0-1.56-.89L385,107A4,4,0,0,0,386.79,106.19Z" style="fill:#fff"></path><path d="M195.43,121.77l-2,22.51a7.62,7.62,0,0,1-7.45,6.85h-1.29l-.77,8.93-6.53-8.93H163.51a6.18,6.18,0,0,1-6.25-6.85l2-22.51a7.62,7.62,0,0,1,7.45-6.85h22.5A6.18,6.18,0,0,1,195.43,121.77Z" style="fill:#FFD523"></path><g style="opacity:0.2"><path d="M195.43,121.77l-2,22.51a7.62,7.62,0,0,1-7.45,6.85h-1.29l-.77,8.93-6.53-8.93H163.51a6.18,6.18,0,0,1-6.25-6.85l2-22.51a7.62,7.62,0,0,1,7.45-6.85h22.5A6.18,6.18,0,0,1,195.43,121.77Z" style="fill:#fff"></path></g><path d="M167.56,132.43a4.65,4.65,0,0,1-1-3.41,5.06,5.06,0,0,1,1.36-3.41,4.16,4.16,0,0,1,3.11-1.28,3.72,3.72,0,0,1,3,1.28,4.69,4.69,0,0,1,1,3.41,5.15,5.15,0,0,1-1.35,3.41,4.12,4.12,0,0,1-3.1,1.28A3.75,3.75,0,0,1,167.56,132.43ZM172,131a3.73,3.73,0,0,0,.58-2,3.43,3.43,0,0,0-.37-2,1.41,1.41,0,0,0-1.26-.68,1.61,1.61,0,0,0-1.33.7,3.71,3.71,0,0,0-.59,2,3.39,3.39,0,0,0,.38,2,1.43,1.43,0,0,0,1.25.7A1.61,1.61,0,0,0,172,131Zm9.17-6.51H184l-12.5,17h-2.89Zm-1.64,16.62a3.6,3.6,0,0,1-1.41-1.64,5.43,5.43,0,0,1-.4-2.48,5.72,5.72,0,0,1,.66-2.47,4.16,4.16,0,0,1,1.58-1.64,4.36,4.36,0,0,1,2.21-.57,3.76,3.76,0,0,1,3,1.27,4.65,4.65,0,0,1,1,3.41,5.11,5.11,0,0,1-1.36,3.42,4.17,4.17,0,0,1-3.11,1.27A4,4,0,0,1,179.51,141.15ZM183.1,139a3.64,3.64,0,0,0,.57-2,3.4,3.4,0,0,0-.36-2,1.43,1.43,0,0,0-1.27-.69,1.61,1.61,0,0,0-1.32.68,3.58,3.58,0,0,0-.59,2,3.33,3.33,0,0,0,.38,2,1.43,1.43,0,0,0,1.25.68A1.59,1.59,0,0,0,183.1,139Z" style="fill:#fff"></path></g><g id="freepik--Device--inject-78"><path d="M337.19,86.7h-26L295.54,386h26a23.23,23.23,0,0,0,22.94-21.79l13.4-255.72A20.48,20.48,0,0,0,337.19,86.7Z" style="fill:#FFD523"></path><path d="M315.5,386h-107a20.47,20.47,0,0,1-20.65-21.79l13.4-255.72A23.24,23.24,0,0,1,224.2,86.7h107a20.48,20.48,0,0,1,20.65,21.8l-13.4,255.72A23.23,23.23,0,0,1,315.5,386Z" style="fill:#263238"></path><path d="M330.74,95.2H319.32a3.07,3.07,0,0,0-3,2.88l-.22,4.31a8.32,8.32,0,0,1-8.21,7.8H245.07a7.32,7.32,0,0,1-7.39-7.8l.22-4.31a2.71,2.71,0,0,0-2.73-2.88H223.75a14.18,14.18,0,0,0-14,13.3l-13.4,255.72A12.48,12.48,0,0,0,209,377.51H316a14.17,14.17,0,0,0,14-13.29l13.4-255.72A12.49,12.49,0,0,0,330.74,95.2Z" style="fill:#FFD523"></path><path d="M330.74,95.2H319.32a3.07,3.07,0,0,0-3,2.88l-.22,4.31a8.32,8.32,0,0,1-8.21,7.8H245.07a7.32,7.32,0,0,1-7.39-7.8l.22-4.31a2.71,2.71,0,0,0-2.73-2.88H223.75a14.18,14.18,0,0,0-14,13.3l-13.4,255.72A12.48,12.48,0,0,0,209,377.51H316a14.17,14.17,0,0,0,14-13.29l13.4-255.72A12.49,12.49,0,0,0,330.74,95.2Z" style="fill:#fff;opacity:0.7000000000000001"></path><path d="M225.42,137.16a9.7,9.7,0,0,1-9.79-10.33A11,11,0,0,1,226.5,116.5h99.17a9.7,9.7,0,0,1,9.79,10.33,11,11,0,0,1-10.87,10.33Z" style="fill:#fff"></path><path d="M277.48,121.48a5.1,5.1,0,0,0-7.38,7,4.88,4.88,0,0,0,6,.71,1.25,1.25,0,0,0,.33.67l3.19,3.36a1.41,1.41,0,0,0,2-1.94l-3.18-3.36a1.33,1.33,0,0,0-.65-.37A4.89,4.89,0,0,0,277.48,121.48ZM276,127.34a3.25,3.25,0,1,1,.25-4.72A3.32,3.32,0,0,1,276,127.34Z" style="fill:#263238;opacity:0.5"></path><path d="M214,157.67a11,11,0,0,1,10.87-10.33h99.17a9.7,9.7,0,0,1,9.79,10.33l-8.33,159A11,11,0,0,1,314.64,327H215.47a9.7,9.7,0,0,1-9.79-10.33Z" style="fill:#fff;opacity:0.5"></path><path d="M256.09,102a2.35,2.35,0,0,1-2.37-2.5,2.66,2.66,0,0,1,2.63-2.5h24a2.35,2.35,0,0,1,2.37,2.5,2.67,2.67,0,0,1-2.63,2.5Z" style="opacity:0.6000000000000001"></path><path d="M298.67,99.5a5.27,5.27,0,0,1-5.21,5,4.66,4.66,0,0,1-4.7-5,5.28,5.28,0,0,1,5.22-5A4.65,4.65,0,0,1,298.67,99.5Z" style="opacity:0.30000000000000004"></path><path d="M296.22,99.5a2.67,2.67,0,0,1-2.63,2.5,2.35,2.35,0,0,1-2.37-2.5,2.66,2.66,0,0,1,2.63-2.5A2.35,2.35,0,0,1,296.22,99.5Z" style="opacity:0.6000000000000001"></path><path d="M237.11,181.9a9.28,9.28,0,0,1-5.32,2.18l-.18,3.38h-3l.17-3.29a16.09,16.09,0,0,1-4.21-.78,10.09,10.09,0,0,1-3.17-1.63l1.85-3.67a10.44,10.44,0,0,0,2.61,1.41,12,12,0,0,0,3.13.72l.26-5a22,22,0,0,1-3.56-1.14,5.87,5.87,0,0,1-2.37-1.86,4.76,4.76,0,0,1-.82-3.23,6.15,6.15,0,0,1,2-4.3,9.18,9.18,0,0,1,5.38-2.18l.17-3.35h3l-.18,3.29a12.7,12.7,0,0,1,6,1.83l-1.7,3.71a11.47,11.47,0,0,0-4.53-1.57l-.26,5.13a19.79,19.79,0,0,1,3.51,1.1,5.83,5.83,0,0,1,2.36,1.83,4.74,4.74,0,0,1,.82,3.21A6,6,0,0,1,237.11,181.9Zm-9.25-12a4.38,4.38,0,0,0,1.61.81l.23-4.28a3.6,3.6,0,0,0-1.74.86,2.1,2.1,0,0,0-.61,1.37A1.44,1.44,0,0,0,227.86,170Zm5.8,9.37a1.84,1.84,0,0,0,.61-1.3,1.44,1.44,0,0,0-.49-1.23,4.56,4.56,0,0,0-1.57-.84L232,180.1A3.43,3.43,0,0,0,233.66,179.32Z" style="fill:#263238"></path><path d="M255.86,165.08c1.58,1.8,2.27,4.39,2.1,7.76a13.58,13.58,0,0,1-1.67,6.15,9.86,9.86,0,0,1-4,3.89,12.07,12.07,0,0,1-5.7,1.32,12.84,12.84,0,0,1-3.21-.38,8.12,8.12,0,0,1-2.56-1.06l2-3.59a6.6,6.6,0,0,0,3.89,1.05,6,6,0,0,0,4.33-1.58,6.92,6.92,0,0,0,1.93-4.56,7.45,7.45,0,0,1-5.34,1.9,8,8,0,0,1-3.63-.82,5.85,5.85,0,0,1-3.29-5.75A6.92,6.92,0,0,1,242,165.7a7.41,7.41,0,0,1,3-2.45,9.55,9.55,0,0,1,4.09-.86A8.55,8.55,0,0,1,255.86,165.08Zm-4.29,6.36a3.08,3.08,0,0,0,1.13-2.27,2.77,2.77,0,0,0-.86-2.26,3.72,3.72,0,0,0-2.65-.88,3.93,3.93,0,0,0-2.6.85,3,3,0,0,0-1.09,2.29,2.76,2.76,0,0,0,.85,2.3,3.68,3.68,0,0,0,2.57.86A4,4,0,0,0,251.57,171.44Z" style="fill:#263238"></path><path d="M275.06,165.08q2.35,2.7,2.09,7.76a13.58,13.58,0,0,1-1.66,6.15,9.88,9.88,0,0,1-4,3.89,12,12,0,0,1-5.7,1.32,12.89,12.89,0,0,1-3.21-.38,8.22,8.22,0,0,1-2.56-1.06l2-3.59a6.62,6.62,0,0,0,3.9,1.05,6,6,0,0,0,4.33-1.58,6.92,6.92,0,0,0,1.92-4.56,7.45,7.45,0,0,1-5.34,1.9,8,8,0,0,1-3.63-.82,5.93,5.93,0,0,1-2.5-2.3,6,6,0,0,1-.78-3.45,6.83,6.83,0,0,1,1.24-3.71,7.41,7.41,0,0,1,3-2.45,9.59,9.59,0,0,1,4.1-.86A8.58,8.58,0,0,1,275.06,165.08Zm-4.3,6.36a3.08,3.08,0,0,0,1.13-2.27,2.74,2.74,0,0,0-.86-2.26,3.7,3.7,0,0,0-2.65-.88,3.89,3.89,0,0,0-2.59.85,3,3,0,0,0-1.1,2.29,2.74,2.74,0,0,0,.86,2.3,3.64,3.64,0,0,0,2.56.86A4,4,0,0,0,270.76,171.44Z" style="fill:#263238"></path><path d="M279.26,183.24a2.72,2.72,0,0,1-.73-2.11,2.92,2.92,0,0,1,1-2.1,3.07,3.07,0,0,1,2.12-.79,2.79,2.79,0,0,1,2,.79,2.64,2.64,0,0,1,.73,2.1,3.06,3.06,0,0,1-3.08,3A2.68,2.68,0,0,1,279.26,183.24Z" style="fill:#263238"></path><path d="M301.75,165.08c1.58,1.8,2.27,4.39,2.1,7.76a13.58,13.58,0,0,1-1.67,6.15,9.86,9.86,0,0,1-4,3.89,12.07,12.07,0,0,1-5.7,1.32,12.84,12.84,0,0,1-3.21-.38,8.12,8.12,0,0,1-2.56-1.06l2-3.59a6.6,6.6,0,0,0,3.89,1.05,6,6,0,0,0,4.33-1.58,6.92,6.92,0,0,0,1.93-4.56,7.45,7.45,0,0,1-5.34,1.9,8,8,0,0,1-3.63-.82,5.81,5.81,0,0,1-3.29-5.75,6.92,6.92,0,0,1,1.25-3.71,7.41,7.41,0,0,1,3-2.45,9.55,9.55,0,0,1,4.09-.86A8.55,8.55,0,0,1,301.75,165.08Zm-4.29,6.36a3.08,3.08,0,0,0,1.13-2.27,2.77,2.77,0,0,0-.86-2.26,3.73,3.73,0,0,0-2.66-.88,3.92,3.92,0,0,0-2.59.85,3,3,0,0,0-1.09,2.29,2.73,2.73,0,0,0,.85,2.3,3.67,3.67,0,0,0,2.56.86A4,4,0,0,0,297.46,171.44Z" style="fill:#263238"></path><path d="M321,165.08q2.35,2.7,2.09,7.76a13.71,13.71,0,0,1-1.66,6.15,9.88,9.88,0,0,1-4,3.89,12,12,0,0,1-5.7,1.32,12.89,12.89,0,0,1-3.21-.38,8.22,8.22,0,0,1-2.56-1.06l2-3.59a6.62,6.62,0,0,0,3.9,1.05,6,6,0,0,0,4.33-1.58,6.92,6.92,0,0,0,1.92-4.56,7.45,7.45,0,0,1-5.34,1.9,8,8,0,0,1-3.63-.82,5.93,5.93,0,0,1-2.5-2.3,6.09,6.09,0,0,1-.79-3.45,6.92,6.92,0,0,1,1.25-3.71,7.41,7.41,0,0,1,3-2.45,9.59,9.59,0,0,1,4.1-.86A8.58,8.58,0,0,1,321,165.08Zm-4.3,6.36a3.08,3.08,0,0,0,1.13-2.27,2.74,2.74,0,0,0-.86-2.26,3.7,3.7,0,0,0-2.65-.88,3.89,3.89,0,0,0-2.59.85,3,3,0,0,0-1.1,2.29,2.74,2.74,0,0,0,.86,2.3,3.64,3.64,0,0,0,2.56.86A4,4,0,0,0,316.65,171.44Z" style="fill:#263238"></path><path d="M244.52,207.61a7.08,7.08,0,0,1-2.83-2.86,7.65,7.65,0,0,1-.86-4.08,8.24,8.24,0,0,1,4.41-6.93,9.06,9.06,0,0,1,4.31-1,8.39,8.39,0,0,1,4.18,1,7.07,7.07,0,0,1,2.81,2.85,7.6,7.6,0,0,1,.85,4.08,8.18,8.18,0,0,1-4.39,6.94,9,9,0,0,1-4.29,1A8.37,8.37,0,0,1,244.52,207.61Zm7.42-1.73a6.16,6.16,0,0,0,2.28-2.14,6.37,6.37,0,0,0,.95-3.07,5.8,5.8,0,0,0-.63-3.06,5.3,5.3,0,0,0-2-2.15,5.9,5.9,0,0,0-3-.78,6.45,6.45,0,0,0-3.15.78,6.17,6.17,0,0,0-2.3,2.15,6.33,6.33,0,0,0-.95,3.06,5.84,5.84,0,0,0,.63,3.07,5.2,5.2,0,0,0,2.07,2.14,6,6,0,0,0,3.07.78A6.34,6.34,0,0,0,251.94,205.88Z" style="fill:#263238"></path><path d="M274.62,192.88l-.82,15.59H272l-8.74-11.63-.61,11.63h-2.23l.82-15.59H263l8.74,11.62.61-11.62Z" style="fill:#263238"></path><path d="M279.29,192.88h2.23l-.72,13.65h8.45l-.11,1.94H278.48Z" style="fill:#263238"></path><path d="M296.33,203.08l-.28,5.39h-2.21l.29-5.44-5.66-10.15h2.38l4.56,8.22,5.44-8.22h2.21Z" style="fill:#263238"></path><ellipse cx="266.44" cy="293.95" rx="55.6" ry="22.34" transform="matrix(1, -0.01, 0.01, 1, -2.95, 2.7)" style="opacity:0.1"></ellipse><path d="M238,213.71s11.48,6,27,31.27,36.32,23.1,36.32,23.1l1.81,2.16,1.21,4.57-6.13,6.74-18-1L260.6,264.47l-21.33-33.68-4-10.83Z" style="fill:#FFD523"></path><path d="M238,213.71s11.48,6,27,31.27,36.32,23.1,36.32,23.1l1.81,2.16,1.21,4.57-6.13,6.74-18-1L260.6,264.47l-21.33-33.68-4-10.83Z" style="opacity:0.5"></path><path d="M238,213.71s-18.18,7.22-13.07,38.25l.85,39h4.81l2.26-38.49s17.05.48,34.7,35.61c0,0,1.18,5.05,18.74,5.05s37.46-7.94,37.46-7.94l.14-7.22-22.58-9.86s1.9,9.62-15.57,7.94S269.41,247.87,238,213.71Z" style="fill:#FFD523"></path><path d="M225.33,224.76s11.48,6,27,31.27,36.32,23.1,36.32,23.1l1.81,2.16,1.21,4.57-6.13,6.74-18-1-19.61-16.12L226.6,241.84l-4-10.83Z" style="fill:#FFD523"></path><path d="M225.33,224.76s11.48,6,27,31.27,36.32,23.1,36.32,23.1l1.81,2.16,1.21,4.57-6.13,6.74-18-1-19.61-16.12L226.6,241.84l-4-10.83Z" style="opacity:0.5"></path><path d="M225.33,224.76S207.15,232,212.26,263l.85,39h4.81l2.26-38.49s17,.48,34.7,35.61c0,0,1.18,5,18.74,5s37.46-7.94,37.46-7.94l.14-7.22-22.58-9.86s1.9,9.62-15.57,7.94S256.74,258.92,225.33,224.76Z" style="fill:#FFD523"></path><path d="M225.33,224.76S207.15,232,212.26,263l.85,39h4.81l2.26-38.49s17,.48,34.7,35.61c0,0,1.18,5,18.74,5s37.46-7.94,37.46-7.94l.14-7.22-22.58-9.86s1.9,9.62-15.57,7.94S256.74,258.92,225.33,224.76Z" style="fill:#fff;opacity:0.1"></path><path d="M209,377.51H316a14.17,14.17,0,0,0,14-13.29l13.4-255.72a12.49,12.49,0,0,0-6.78-11.91L205.68,377.08A13,13,0,0,0,209,377.51Z" style="fill:#fff;opacity:0.2"></path><polygon points="289.31 305.43 297.26 300.32 301.8 308.11 310.97 306.57 311.84 315.7 320.66 317.99 317.71 326.88 324.64 332.61 318.39 339.71 322.23 347.89 313.75 351.99 313.85 361.19 304.62 361.58 300.95 370.22 292.55 366.83 285.75 373.42 279.64 366.83 270.89 370.22 268.13 361.58 258.93 361.19 260 351.99 251.95 347.89 256.65 339.71 251.14 332.61 258.67 326.88 256.66 317.99 265.71 315.7 267.54 306.57 276.55 308.11 281.9 300.32 289.31 305.43" style="fill:#FFD523"></polygon><polygon points="289.31 305.43 297.26 300.32 301.8 308.11 310.97 306.57 311.84 315.7 320.66 317.99 317.71 326.88 324.64 332.61 318.39 339.71 322.23 347.89 313.75 351.99 313.85 361.19 304.62 361.58 300.95 370.22 292.55 366.83 285.75 373.42 279.64 366.83 270.89 370.22 268.13 361.58 258.93 361.19 260 351.99 251.95 347.89 256.65 339.71 251.14 332.61 258.67 326.88 256.66 317.99 265.71 315.7 267.54 306.57 276.55 308.11 281.9 300.32 289.31 305.43" style="opacity:0.1"></polygon><path d="M269.72,331.74a4.63,4.63,0,0,1-1.75-1l.64-1.21a4.57,4.57,0,0,0,1.55.91,5.83,5.83,0,0,0,2,.35,3.71,3.71,0,0,0,2.05-.46,1.53,1.53,0,0,0,.74-1.22,1.17,1.17,0,0,0-.32-.92,2.28,2.28,0,0,0-.88-.53,14.78,14.78,0,0,0-1.5-.43,14,14,0,0,1-2-.59,3,3,0,0,1-1.24-.91,2.3,2.3,0,0,1-.45-1.66,3,3,0,0,1,.54-1.58,3.41,3.41,0,0,1,1.45-1.12,5.85,5.85,0,0,1,2.35-.42,7.11,7.11,0,0,1,1.89.25,4.46,4.46,0,0,1,1.57.72l-.58,1.24a5.31,5.31,0,0,0-1.43-.66,5.39,5.39,0,0,0-1.52-.23,3.51,3.51,0,0,0-2,.49,1.56,1.56,0,0,0-.73,1.25,1.16,1.16,0,0,0,.32.91,2.51,2.51,0,0,0,.9.54,15.35,15.35,0,0,0,1.49.42,14.76,14.76,0,0,1,1.95.59,3.1,3.1,0,0,1,1.24.91,2.28,2.28,0,0,1,.45,1.63,2.87,2.87,0,0,1-.55,1.57,3.37,3.37,0,0,1-1.48,1.12,5.93,5.93,0,0,1-2.36.42A7.43,7.43,0,0,1,269.72,331.74Z" style="fill:#fff"></path><path d="M285.69,329.26h-5.8L278.54,332h-1.6l5.51-10.92H284L288.39,332h-1.64Zm-.48-1.25-2.07-5.35L280.5,328Z" style="fill:#fff"></path><path d="M299.49,321.07,294.13,332h-1.55l-4.23-10.92H290l3.46,9,4.43-9Z" style="fill:#fff"></path><path d="M308.3,330.64l-.07,1.35H300.3l.58-10.92h7.7l-.07,1.36h-6.14l-.18,3.35h5.48l-.07,1.33h-5.48l-.18,3.53Z" style="fill:#fff"></path><path d="M277.68,349.82l-.14,2.73H266.61l.12-2.17,5.85-5.27a6.48,6.48,0,0,0,1.27-1.45,2.73,2.73,0,0,0,.37-1.21,1.52,1.52,0,0,0-.51-1.33,2.65,2.65,0,0,0-1.7-.47,4.14,4.14,0,0,0-1.74.37,3.54,3.54,0,0,0-1.33,1.08l-2.36-1.57a6.11,6.11,0,0,1,2.44-2,7.93,7.93,0,0,1,3.44-.71,6.78,6.78,0,0,1,2.79.52,4,4,0,0,1,1.8,1.49,3.69,3.69,0,0,1,.56,2.26,5.29,5.29,0,0,1-.61,2.21,9.17,9.17,0,0,1-2.05,2.35l-3.49,3.14Z" style="fill:#fff"></path><path d="M288.79,344.74a3.84,3.84,0,0,1,1.29,3.26,4.73,4.73,0,0,1-.79,2.41,5,5,0,0,1-2.1,1.73,7.82,7.82,0,0,1-3.37.65,11,11,0,0,1-3-.4,7.41,7.41,0,0,1-2.45-1.14l1.45-2.56a6.12,6.12,0,0,0,1.85,1,7.37,7.37,0,0,0,2.19.34,3.6,3.6,0,0,0,2-.5,1.68,1.68,0,0,0,.8-1.38,1.5,1.5,0,0,0-.68-1.41,5.15,5.15,0,0,0-2.59-.47h-3.7l1.17-8.14h8.82l-.14,2.69h-6l-.37,2.74h1.18A6.65,6.65,0,0,1,288.79,344.74Z" style="fill:#fff"></path><path d="M292.15,344.81a3.88,3.88,0,0,1-.84-2.9,4.29,4.29,0,0,1,1.15-2.9,3.55,3.55,0,0,1,2.65-1.08,3.15,3.15,0,0,1,2.52,1.08,4,4,0,0,1,.84,2.9,4.29,4.29,0,0,1-1.14,2.9,3.5,3.5,0,0,1-2.64,1.09A3.19,3.19,0,0,1,292.15,344.81Zm3.76-1.18a3.06,3.06,0,0,0,.49-1.72,2.9,2.9,0,0,0-.31-1.71,1.21,1.21,0,0,0-1.07-.58,1.37,1.37,0,0,0-1.13.59,3.12,3.12,0,0,0-.5,1.7,2.89,2.89,0,0,0,.32,1.71,1.22,1.22,0,0,0,1.07.59A1.36,1.36,0,0,0,295.91,343.63Zm7.8-5.54h2.45l-10.62,14.46h-2.46Zm-1.39,14.14a3.06,3.06,0,0,1-1.2-1.4,4.39,4.39,0,0,1-.34-2.1,4.88,4.88,0,0,1,.56-2.11,3.52,3.52,0,0,1,1.34-1.39,3.64,3.64,0,0,1,1.88-.49,3.16,3.16,0,0,1,2.53,1.09,3.94,3.94,0,0,1,.85,2.9,4.32,4.32,0,0,1-1.15,2.9,3.57,3.57,0,0,1-2.65,1.08A3.41,3.41,0,0,1,302.32,352.23Zm3-1.8a3,3,0,0,0,.49-1.7,2.92,2.92,0,0,0-.31-1.71,1.19,1.19,0,0,0-1.07-.58,1.37,1.37,0,0,0-1.13.57,3.14,3.14,0,0,0-.5,1.72,2.87,2.87,0,0,0,.32,1.71,1.21,1.21,0,0,0,1.07.58A1.34,1.34,0,0,0,305.36,350.43Z" style="fill:#fff"></path></g><g id="freepik--Character--inject-78"><path d="M148.3,118.67l-7.83-3.17-8.33.25s-17.67-3.25-9.84,37.75l3.13.78-.17-3.78,1.62,4.14,12.84,3.19L143,155l-1.6,3.25,2.8.69,3.3-6.38-2.29,6.63,2.58.64s5.5-8.16,5.84-30Z" style="fill:#263238"></path><path d="M156.24,232.75s11.25,70,7.67,83.25-54.24,82.25-54.24,82.25l-6.13-4s21-49.83,36.92-72.2c3-4.29,5.61-7.29,6.61-10.29,1.18-3.51-1.27-8.84-3-12.91-3.15-7.28-12.8-29.84-12.8-29.84s-9.39-17.4-2.15-34.33Z" style="fill:#ebb376"></path><path d="M114.76,413.66a15,15,0,0,1-2.4-11.17l1.11-8.64,2.61-2.9s-.62-3.74-3.9-3.91a14.44,14.44,0,0,1-5.8-1.62l-2.13,3.94c-2.23.31-7.91,9.81-10.08,14.07l1.09.76a51.17,51.17,0,0,0,5.61-6.34c-2.92,11.3,13,20.6,14.56,18.89C116,416.11,115.56,414.91,114.76,413.66Z" style="fill:#263238"></path><g style="opacity:0.1"><path d="M133.87,364.36l3.42-37.61c-8,12.53-16.89,30.4-23.51,44.61.45,7.13,1,13.75,1.51,19.16C119.87,384.19,126.73,374.62,133.87,364.36Z"></path></g><path d="M142.82,232.75,127.25,404.06,119.7,404s-6.13-51.55-3-79.65c.69-6.19,2.06-10.56,2.56-13.68.46-2.88-.22-4.45-1.73-11.32-3.91-17.7-9.81-51.47-2-66.6Z" style="fill:#ebb376"></path><path d="M142.82,232.75,127.25,404.06,119.7,404s-6.13-51.55-3-79.65c.69-6.19,2.06-10.56,2.56-13.68.46-2.88-.22-4.45-1.73-11.32-3.91-17.7-9.81-51.47-2-66.6Z" style="fill:#ebb376"></path><path d="M140.76,413.18a15,15,0,0,1-8.34-7.82l-4-7.73.49-3.87s-2.63-2.72-5.43-1a14.42,14.42,0,0,1-5.69,2l.5,4.45c-1.66,1.52-.92,12.57-.27,17.3h1.33a52,52,0,0,0,1-8.4c4,10.95,22.39,9.54,22.72,7.23C143.19,414.47,142.13,413.75,140.76,413.18Z" style="fill:#263238"></path><path d="M118.35,225.83s-12.41,8.58-8.22,42.25,3.69,37.67,3.69,37.67a295.58,295.58,0,0,0,50.92-1.5s0-55.69-8.23-79l-21.69-.4Z" style="fill:#263238"></path><path d="M119.32,221.25l-5.3,6.8a1,1,0,0,0,1.11,1.65c4.54-1.33,12.19-3,11.57,1.05-.88,5.75,15.57-6.62,17-1.5,1.19,4.16,9.55-.48,14.1-.45a1,1,0,0,0,.93-1.57l-3.56-6-26.7-3Z" style="fill:#FFD523"></path><path d="M119.32,221.25l-5.3,6.8a1,1,0,0,0,1.11,1.65c4.54-1.33,12.19-3,11.57,1.05-.88,5.75,15.57-6.62,17-1.5,1.19,4.16,9.55-.48,14.1-.45a1,1,0,0,0,.93-1.57l-3.56-6-26.7-3Z" style="fill:#fff;opacity:0.2"></path><path d="M128.14,226.48l-1.86,2.59a1.94,1.94,0,0,1,.42,1.68c-.16,1,.25,1.47,1,1.54l1.36-5.38A.52.52,0,0,0,128.14,226.48Z" style="opacity:0.2"></path><path d="M146.45,231l-1.36-4.76a.53.53,0,0,0-1,.12l-.19,3.2A2.54,2.54,0,0,0,146.45,231Z" style="opacity:0.2"></path><path d="M128.07,142.31c1,5.28,1.92,14.94-1.8,18.42,0,0,4.57,4,13.5,8.11,5.9-4.78,2.87-8,2.87-8-5.85-1.49-5.66-5.82-4.65-9.9Z" style="fill:#ebb376"></path><path d="M129.2,147.38c.3,3.36,5,6.28,8.26,6.89A17.36,17.36,0,0,1,138,151l-8.42-7.37A14,14,0,0,0,129.2,147.38Z" style="opacity:0.2;isolation:isolate"></path><path d="M126.17,130.33c0,8.82-.26,12.55,3.87,17.35,6.22,7.23,17.05,5.37,19.74-3.26,2.42-7.76,2.1-20.87-6.26-24.94a12,12,0,0,0-17.35,10.85Z" style="fill:#ebb376"></path><path d="M145.17,135.3a18.88,18.88,0,0,0,2.24,4.74,3.09,3.09,0,0,1-2.58.32Z" style="fill:#d58745"></path><path d="M136.29,129.91a.37.37,0,0,1-.16-.09.35.35,0,0,1,0-.49h0a4.1,4.1,0,0,1,3.58-1.16.36.36,0,0,1,.26.42.35.35,0,0,1-.41.27,3.42,3.42,0,0,0-3,1A.31.31,0,0,1,136.29,129.91Z" style="fill:#2e353a"></path><path d="M151.44,131.05a.51.51,0,0,1-.16-.09,3.44,3.44,0,0,0-2.94-1,.35.35,0,0,1-.42-.26h0a.35.35,0,0,1,.27-.42,4.13,4.13,0,0,1,3.59,1.18.35.35,0,0,1-.34.59Z" style="fill:#2e353a"></path><path d="M140.2,133.78c0,.71.29,1.32.76,1.35s.88-.52.93-1.24-.29-1.31-.76-1.34S140.25,133.06,140.2,133.78Z" style="fill:#2e353a"></path><path d="M148.28,134.33c-.05.71.29,1.31.76,1.34s.88-.51.93-1.23-.29-1.32-.76-1.35S148.32,133.61,148.28,134.33Z" style="fill:#2e353a"></path><path d="M149,133.11l1.75-.37S149.78,134,149,133.11Z" style="fill:#2e353a"></path><path d="M140.93,132.57l1.74-.38S141.7,133.47,140.93,132.57Z" style="fill:#2e353a"></path><path d="M143,144a5.59,5.59,0,0,0,.91.16.17.17,0,0,0,.18-.15h0a.17.17,0,0,0-.15-.18,4.35,4.35,0,0,1-3.38-2,.16.16,0,1,0-.29.15A4.54,4.54,0,0,0,143,144Z" style="fill:#2e353a"></path><path d="M124.49,162.25l2.08-3.17L126,157.5a.71.71,0,0,1,.73-1c2.76.27,9.84.83,13.68.17a.7.7,0,0,1,.78.91l-.57,1.72,6.42,3.5-.67,6.59-3.58,3.08-6.08-1.42-9.92-4.87Z" style="fill:#FFD523"></path><path d="M124.49,162.25l2.08-3.17L126,157.5a.71.71,0,0,1,.73-1c2.76.27,9.84.83,13.68.17a.7.7,0,0,1,.78.91l-.57,1.72,6.42,3.5-.67,6.59-3.58,3.08-6.08-1.42-9.92-4.87Z" style="fill:#fff;opacity:0.2"></path><path d="M168.64,194.62l6-10.56,4.58-7.18h6.4a1.22,1.22,0,0,1,1.19,1l.27,1.15a2.08,2.08,0,0,1-.45,1.81l-4.18,4.86a2.07,2.07,0,0,1-1,.64l-3.44,1-6.52,15.83Z" style="fill:#ebb376"></path><path d="M153.14,163.36s9.13.56,13.2,34.27c0,0,.2-4,2.3-4v-1.51a.53.53,0,0,1,.88-.4l6.08,5.49a.52.52,0,0,1,0,.81l-1.64,1.27s-3.69,13.89-8.54,13.89C157.17,213.17,140.57,165.83,153.14,163.36Z" style="fill:#FFD523"></path><path d="M153.14,163.36s9.13.56,13.2,34.27c0,0,.2-4,2.3-4v-1.51a.53.53,0,0,1,.88-.4l6.08,5.49a.52.52,0,0,1,0,.81l-1.64,1.27s-3.69,13.89-8.54,13.89C157.17,213.17,140.57,165.83,153.14,163.36Z" style="fill:#fff;opacity:0.2"></path><path d="M150.57,172.13l-1.92,2.47c.64,11,6.38,27,11.68,34.46A43.69,43.69,0,0,0,163.07,195c.13-9.37-6.9-24.36-6.9-24.36Z" style="opacity:0.1"></path><path d="M153.14,163.36c-2.68-.69-5.23-1.22-7.66-1.63,2.5,6.8-4.91,8.6-4.91,8.6-5.52-4.72-12.85-8.12-15.58-9.29a39.92,39.92,0,0,0-9.84,2.21l4.17,58H155.2s5.12-19.5,5.5-30.33S153.14,163.36,153.14,163.36Z" style="fill:#FFD523"></path><path d="M122.07,172.13s8.15,12.47,9.32,26.33l5.05-3.08,5.54,7.27a.92.92,0,0,1-.5,1.45l-2,.52s-2.53,10.38-9.78,11-15.76-19.25-15.76-19.25Z" style="opacity:0.1"></path><path d="M130.79,161.31a38,38,0,0,0,11.17.58S142.94,165.56,130.79,161.31Z" style="opacity:0.2"></path><path d="M134.82,196.88,146.57,186l6.24-7.72a1.28,1.28,0,0,1,.84-.47l9.45-1.25,0,.51a1.47,1.47,0,0,1-.82,1.38L159,180.06l-.89,6.14a1.31,1.31,0,0,1-.83,1l-6.55,2.4-12.91,13.45Z" style="fill:#ebb376"></path><path d="M133.93,196.3l1.36-2.09a1,1,0,0,1,1.61,0l4.46,6.41a1,1,0,0,1-.46,1.46l-2.38.89s-3.32,9.45-9.45,9.37-14.62-9-18.75-27.61,4.83-21.46,4.83-21.46,9-2.07,14.35,35.47C129.5,198.72,131.55,196.35,133.93,196.3Z" style="fill:#FFD523"></path><path d="M133.93,196.3l1.36-2.09a1,1,0,0,1,1.61,0l4.46,6.41a1,1,0,0,1-.46,1.46l-2.38.89s-3.32,9.45-9.45,9.37-14.62-9-18.75-27.61,4.83-21.46,4.83-21.46,9-2.07,14.35,35.47C129.5,198.72,131.55,196.35,133.93,196.3Z" style="fill:#fff;opacity:0.2"></path><path d="M144.79,305.84l-5.62-28.29L138,306.1C140.15,306,142.42,306,144.79,305.84Z" style="opacity:0.6000000000000001"></path><path d="M179.5,183h-4.16a.88.88,0,0,1-.79-1.26l7.84-16.07a2.1,2.1,0,0,1,1.88-1.17h4.16a.88.88,0,0,1,.79,1.26l-7.84,16.07A2.1,2.1,0,0,1,179.5,183Z" style="fill:#FFD523"></path><path d="M189.22,165a.85.85,0,0,0-.79-.52h-4.16a2.1,2.1,0,0,0-1.88,1.17l-5.89,12.07Z" style="fill:#fff;opacity:0.2"></path><path d="M188.43,164.48h-.14a.84.84,0,0,1-.07.26l-7.84,16.07A2.1,2.1,0,0,1,178.5,182h-4a.88.88,0,0,0,.87,1h4.16a2.1,2.1,0,0,0,1.88-1.17l7.84-16.07A.88.88,0,0,0,188.43,164.48Z" style="fill:#FFD523"></path><path d="M188.43,164.48h-.14a.84.84,0,0,1-.07.26l-7.84,16.07A2.1,2.1,0,0,1,178.5,182h-4a.88.88,0,0,0,.87,1h4.16a2.1,2.1,0,0,0,1.88-1.17l7.84-16.07A.88.88,0,0,0,188.43,164.48Z" style="opacity:0.2"></path><path d="M185.3,176.38l-1.7-.66a2,2,0,0,0-2.61,1.13l-.61,1.5a2.09,2.09,0,0,0-.1,1.16l1,5.2,4.49-6.7A1.1,1.1,0,0,0,185.3,176.38Z" style="fill:#ebb376"></path><path d="M123.3,133.67s6.84,7.33,9,.83,3.42-8.83,7.17-9,5.17-4.75,5.17-4.75.58,4.17,3.91,6.17,2.59,21.41,1.92,28.08c0,0,6.25-7.67,4.83-25.5s-18-14.58-18-14.58S118.89,111.88,123.3,133.67Z" style="fill:#263238"></path><path d="M123.63,137.14a6.44,6.44,0,0,0,2.84,4c1.93,1.19,3.51-.38,3.5-2.52,0-1.92-1-4.86-3.2-5.18a2.9,2.9,0,0,0-3.23,2.55A2.75,2.75,0,0,0,123.63,137.14Z" style="fill:#ebb376"></path><path d="M144.72,117.67s-3.22,6.31.7,9.25a.74.74,0,0,0,1.1-.9A20.81,20.81,0,0,1,144.72,117.67Z" style="fill:#263238"></path></g></svg>